<?xml version="1.0" encoding="UTF-8"?>
<!DOCTYPE svg PUBLIC "-//W3C//DTD SVG 1.1//EN" "http://www.w3.org/Graphics/SVG/1.1/DTD/svg11.dtd">
<!-- Creator: CorelDRAW 2020 (64-Bit) -->
<svg xmlns="http://www.w3.org/2000/svg" xml:space="preserve" width="1200px" height="800px" version="1.1" style="shape-rendering:geometricPrecision; text-rendering:geometricPrecision; image-rendering:optimizeQuality; fill-rule:evenodd; clip-rule:evenodd"
viewBox="0 0 1200 800"
 xmlns:xlink="http://www.w3.org/1999/xlink"
 xmlns:xodm="http://www.corel.com/coreldraw/odm/2003">
 <defs>
  <style type="text/css">
   <![CDATA[
    .str1 {stroke:#283B78;stroke-width:1;stroke-miterlimit:22.9256}
    .str0 {stroke:#293A77;stroke-width:1;stroke-miterlimit:22.9256}
    .fil0 {fill:#fff}
    .fil1 {fill:#fff;fill-rule:nonzero}
   ]]>
  </style>
 </defs>
 <g id="__x0023_Layer_x0020_1">
  <metadata id="CorelCorpID_0Corel-Layer"/>
  <polygon class="fil0 str0" points="111,332 169,332 169,347 111,347 "/>
  <polygon class="fil0 str1" points="138,444 116,444 69,364 21,444 0,444 58,349 4,262 26,262 69,334 113,262 134,262 80,348 "/>
  <polygon class="fil1" points="203,413 203,264 310,264 310,282 222,282 222,327 305,327 305,345 222,345 222,396 314,396 314,413 "/>
  <path id="1" class="fil1" d="M339 413l0 -108 16 0 0 15c3,-5 8,-10 14,-13 6,-3 12,-5 19,-5 8,0 15,2 20,5 5,3 9,8 11,14 9,-13 20,-19 34,-19 11,0 19,3 25,9 6,6 9,15 9,27l0 74 -18 0 0 -68c0,-7 -1,-13 -2,-16 -1,-3 -3,-6 -7,-8 -3,-2 -7,-3 -11,-3 -8,0 -14,3 -19,8 -5,5 -8,13 -8,24l0 63 -18 0 0 -70c0,-8 -1,-14 -4,-18 -3,-4 -8,-6 -15,-6 -5,0 -10,1 -14,4 -4,3 -8,7 -10,12 -2,5 -3,13 -3,23l0 56 -18 0z"/>
  <path id="2" class="fil1" d="M583 400c-7,6 -13,10 -20,12 -6,2 -13,4 -20,4 -12,0 -21,-3 -27,-9 -6,-6 -10,-13 -10,-22 0,-5 1,-10 4,-14 2,-4 6,-8 9,-10 4,-3 8,-5 13,-6 4,-1 9,-2 16,-3 15,-2 26,-4 33,-6 0,-3 0,-4 0,-5 0,-7 -2,-13 -5,-16 -5,-4 -12,-6 -21,-6 -9,0 -15,2 -19,5 -4,3 -7,8 -9,16l-18 -3c2,-8 4,-14 8,-19 4,-5 9,-8 16,-11 7,-3 15,-4 25,-4 9,0 17,1 23,3 6,2 10,5 13,8 3,3 5,7 6,13 1,3 1,9 1,17l0 24c0,17 0,28 1,32 1,5 2,9 4,13l-19 0c-2,-4 -3,-8 -4,-14zm-1 -41c-7,3 -17,5 -30,7 -8,1 -13,2 -16,4 -3,1 -6,3 -7,6 -2,3 -3,5 -3,9 0,5 2,9 6,12 4,3 9,5 16,5 7,0 13,-2 19,-5 5,-3 10,-7 12,-13 2,-4 3,-10 3,-18l0 -7z"/>
  <path id="3" class="fil1" d="M628 285l0 -21 18 0 0 21 -18 0zm0 128l0 -108 18 0 0 108 -18 0z"/>
  <polygon id="4" class="fil1" points="674,413 674,264 692,264 692,413 "/>
  <path id="5" class="fil1" d="M707 413l57 -149 22 0 61 149 -22 0 -17 -45 -63 0 -16 45 -21 0zm43 -61l51 0 -16 -41c-5,-13 -8,-23 -11,-31 -2,10 -5,19 -8,29l-16 44z"/>
  <path id="6" class="fil1" d="M930 413l0 -16c-8,12 -20,18 -34,18 -6,0 -12,-1 -18,-4 -6,-2 -10,-6 -12,-9 -3,-4 -5,-8 -6,-14 -1,-4 -1,-9 -1,-17l0 -67 18 0 0 60c0,10 0,16 1,19 1,5 4,9 7,11 4,3 8,4 14,4 5,0 11,-1 15,-4 5,-3 8,-7 10,-11 2,-5 3,-12 3,-21l0 -58 18 0 0 108 -16 0z"/>
  <path id="7" class="fil1" d="M1045 413l0 -14c-7,11 -17,16 -30,16 -9,0 -17,-2 -24,-7 -7,-5 -13,-11 -17,-20 -4,-9 -6,-18 -6,-29 0,-11 2,-21 5,-29 4,-9 9,-15 16,-20 7,-5 15,-7 24,-7 7,0 12,1 17,4 5,3 9,6 12,11l0 -54 18 0 0 149 -17 0zm-58 -54c0,14 3,24 9,31 6,7 13,10 21,10 8,0 15,-3 20,-10 6,-7 8,-16 8,-30 0,-15 -3,-26 -9,-32 -6,-7 -13,-10 -21,-10 -8,0 -15,3 -20,10 -5,7 -8,17 -8,31z"/>
  <path id="8" class="fil1" d="M1092 285l0 -21 18 0 0 21 -18 0zm0 128l0 -108 18 0 0 108 -18 0z"/>
  <path id="9" class="fil1" d="M1178 397l3 16c-5,1 -10,2 -14,2 -7,0 -12,-1 -15,-3 -4,-2 -6,-5 -8,-8 -1,-3 -2,-11 -2,-22l0 -62 -14 0 0 -14 14 0 0 -27 18 -11 0 38 18 0 0 14 -18 0 0 63c0,5 0,9 1,10 1,2 2,3 3,4 1,1 4,1 6,1 2,0 5,0 8,-1z"/>
  <path class="fil1" d="M317 483l18 -48 7 0 19 48 -7 0 -6 -14 -20 0 -5 14 -7 0zm14 -20l16 0 -5 -13c-2,-4 -3,-7 -3,-10 -1,3 -2,6 -3,9l-5 14z"/>
  <path id="1" class="fil1" d="M389 483l0 -5c-3,4 -6,6 -11,6 -2,0 -4,0 -6,-1 -2,-1 -3,-2 -4,-3 -1,-1 -1,-3 -2,-4 0,-1 0,-3 0,-5l0 -21 6 0 0 19c0,3 0,5 0,6 0,2 1,3 2,4 1,1 3,1 4,1 2,0 3,0 5,-1 2,-1 3,-2 3,-4 1,-2 1,-4 1,-7l0 -19 6 0 0 35 -5 0z"/>
  <path id="2" class="fil1" d="M426 483l0 -4c-2,3 -5,5 -10,5 -3,0 -5,-1 -8,-2 -2,-2 -4,-4 -5,-6 -1,-3 -2,-6 -2,-9 0,-3 1,-7 2,-9 1,-3 3,-5 5,-6 2,-2 5,-2 8,-2 2,0 4,0 6,1 2,1 3,2 4,3l0 -17 6 0 0 48 -5 0zm-19 -17c0,4 1,8 3,10 2,2 4,3 7,3 3,0 5,-1 7,-3 2,-2 3,-5 3,-10 0,-5 -1,-8 -3,-10 -2,-2 -4,-3 -7,-3 -3,0 -5,1 -7,3 -2,2 -3,5 -3,10z"/>
  <path id="3" class="fil1" d="M440 442l0 -7 6 0 0 7 -6 0zm0 41l0 -35 6 0 0 35 -6 0z"/>
  <path id="4" class="fil1" d="M468 478l1 5c-2,0 -3,1 -4,1 -2,0 -4,0 -5,-1 -1,-1 -2,-2 -2,-3 0,-1 -1,-3 -1,-7l0 -20 -4 0 0 -5 4 0 0 -9 6 -4 0 12 6 0 0 5 -6 0 0 20c0,2 0,3 0,3 0,0 1,1 1,1 0,0 1,0 2,0 1,0 2,0 3,0z"/>
  <path id="5" class="fil1" d="M492 497l-1 -5c1,0 2,1 3,1 1,0 2,0 3,-1 1,0 1,-1 2,-2 0,-1 1,-2 2,-4 0,0 0,-1 1,-1l-13 -35 6 0 7 20c1,3 2,5 3,8 1,-3 1,-5 2,-8l7 -20 6 0 -13 35c-1,4 -3,6 -3,8 -1,2 -2,3 -4,4 -1,1 -3,1 -5,1 -1,0 -2,0 -4,-1z"/>
  <path id="6" class="fil1" d="M523 466c0,-6 2,-11 5,-14 3,-3 7,-4 11,-4 5,0 9,2 12,5 3,3 5,7 5,13 0,4 -1,8 -2,10 -1,3 -3,5 -6,6 -3,1 -5,2 -8,2 -5,0 -9,-2 -12,-5 -3,-3 -4,-8 -4,-13zm6 0c0,4 1,8 3,10 2,2 4,3 7,3 3,0 5,-1 7,-3 2,-2 3,-6 3,-10 0,-4 -1,-8 -3,-10 -2,-2 -4,-3 -7,-3 -3,0 -5,1 -7,3 -2,2 -3,5 -3,10z"/>
  <path id="7" class="fil1" d="M585 483l0 -5c-3,4 -6,6 -11,6 -2,0 -4,0 -6,-1 -2,-1 -3,-2 -4,-3 -1,-1 -1,-3 -2,-4 0,-1 0,-3 0,-5l0 -21 6 0 0 19c0,3 0,5 0,6 0,2 1,3 2,4 1,1 3,1 4,1 2,0 3,0 5,-1 2,-1 3,-2 3,-4 1,-2 1,-4 1,-7l0 -19 6 0 0 35 -5 0z"/>
  <path id="8" class="fil1" d="M600 483l0 -35 5 0 0 5c1,-2 3,-4 4,-5 1,-1 2,-1 4,-1 2,0 4,1 6,2l-2 5c-1,-1 -3,-1 -4,-1 -1,0 -2,0 -3,1 -1,1 -2,2 -2,3 -1,2 -1,4 -1,7l0 18 -6 0z"/>
  <path id="9" class="fil1" d="M664 472l6 1c-1,4 -3,6 -5,8 -3,2 -6,3 -10,3 -5,0 -9,-2 -12,-5 -3,-3 -4,-7 -4,-13 0,-6 1,-10 4,-14 3,-3 7,-5 12,-5 5,0 8,2 11,5 3,3 4,8 4,13 0,0 0,1 0,2l-26 0c0,4 1,7 3,9 2,2 4,3 7,3 2,0 4,-1 5,-2 2,-1 3,-3 4,-5zm-19 -9l19 0c0,-3 -1,-5 -2,-7 -2,-2 -4,-3 -7,-3 -3,0 -5,1 -7,3 -2,2 -3,4 -3,7z"/>
  <path id="10" class="fil1" d="M678 483l0 -35 5 0 0 5c1,-2 3,-3 4,-4 2,-1 4,-2 6,-2 3,0 5,1 6,2 2,1 3,3 3,4 3,-4 6,-6 11,-6 3,0 6,1 8,3 2,2 3,5 3,9l0 24 -6 0 0 -22c0,-2 0,-4 -1,-5 0,-1 -1,-2 -2,-2 -1,-1 -2,-1 -4,-1 -2,0 -4,1 -6,2 -2,2 -2,4 -2,8l0 20 -6 0 0 -22c0,-3 0,-5 -1,-6 -1,-1 -3,-2 -5,-2 -2,0 -3,0 -5,1 -1,1 -2,2 -3,4 -1,2 -1,4 -1,7l0 18 -6 0z"/>
  <path id="11" class="fil1" d="M756 479c-2,2 -4,3 -6,4 -2,1 -4,1 -6,1 -4,0 -7,-1 -9,-3 -2,-2 -3,-4 -3,-7 0,-2 0,-3 1,-5 1,-1 2,-3 3,-3 1,-1 3,-1 4,-2 1,0 3,-1 5,-1 5,-1 8,-1 10,-2 0,-1 0,-1 0,-2 0,-2 -1,-4 -2,-5 -2,-1 -4,-2 -7,-2 -3,0 -5,0 -6,1 -1,1 -2,3 -3,5l-6 -1c1,-2 1,-4 3,-6 1,-2 3,-3 5,-3 2,-1 5,-1 8,-1 3,0 5,0 7,1 2,1 3,2 4,3 1,1 1,2 2,4 0,1 0,3 0,5l0 8c0,5 0,9 0,10 0,1 1,3 1,4l-6 0c-1,-1 -1,-3 -1,-4zm0 -13c-2,1 -5,2 -10,2 -2,0 -4,1 -5,1 -1,0 -2,1 -2,2 -1,1 -1,2 -1,3 0,2 1,3 2,4 1,1 3,2 5,2 2,0 4,0 6,-1 2,-1 3,-2 4,-4 1,-1 1,-3 1,-6l0 -2z"/>
  <path id="12" class="fil1" d="M770 442l0 -7 6 0 0 7 -6 0zm0 41l0 -35 6 0 0 35 -6 0z"/>
  <polygon id="13" class="fil1" points="785,483 785,436 791,436 791,483 "/>
  <path id="14" class="fil1" d="M841 483l0 -4c-2,3 -5,5 -10,5 -3,0 -5,-1 -8,-2 -2,-2 -4,-4 -5,-6 -1,-3 -2,-6 -2,-9 0,-3 1,-7 2,-9 1,-3 3,-5 5,-6 2,-2 5,-2 8,-2 2,0 4,0 6,1 2,1 3,2 4,3l0 -17 6 0 0 48 -5 0zm-19 -17c0,4 1,8 3,10 2,2 4,3 7,3 3,0 5,-1 7,-3 2,-2 3,-5 3,-10 0,-5 -1,-8 -3,-10 -2,-2 -4,-3 -7,-3 -3,0 -5,1 -7,3 -2,2 -3,5 -3,10z"/>
  <path id="15" class="fil1" d="M879 472l6 1c-1,4 -3,6 -5,8 -3,2 -6,3 -10,3 -5,0 -9,-2 -12,-5 -3,-3 -4,-7 -4,-13 0,-6 1,-10 4,-14 3,-3 7,-5 12,-5 5,0 8,2 11,5 3,3 4,8 4,13 0,0 0,1 0,2l-26 0c0,4 1,7 3,9 2,2 4,3 7,3 2,0 4,-1 5,-2 2,-1 3,-3 4,-5zm-19 -9l19 0c0,-3 -1,-5 -2,-7 -2,-2 -4,-3 -7,-3 -3,0 -5,1 -7,3 -2,2 -3,4 -3,7z"/>
  <polygon id="16" class="fil1" points="892,483 892,436 898,436 898,483 "/>
  <path id="17" class="fil1" d="M907 442l0 -7 6 0 0 7 -6 0zm0 41l0 -35 6 0 0 35 -6 0z"/>
  <path id="18" class="fil1" d="M932 483l-13 -35 6 0 7 21c1,2 2,5 2,7 1,-2 1,-4 2,-7l8 -21 6 0 -13 35 -6 0z"/>
  <path id="19" class="fil1" d="M979 472l6 1c-1,4 -3,6 -5,8 -3,2 -6,3 -10,3 -5,0 -9,-2 -12,-5 -3,-3 -4,-7 -4,-13 0,-6 1,-10 4,-14 3,-3 7,-5 12,-5 5,0 8,2 11,5 3,3 4,8 4,13 0,0 0,1 0,2l-26 0c0,4 1,7 3,9 2,2 4,3 7,3 2,0 4,-1 5,-2 2,-1 3,-3 4,-5zm-19 -9l19 0c0,-3 -1,-5 -2,-7 -2,-2 -4,-3 -7,-3 -3,0 -5,1 -7,3 -2,2 -3,4 -3,7z"/>
  <path id="20" class="fil1" d="M992 483l0 -35 5 0 0 5c1,-2 3,-4 4,-5 1,-1 2,-1 4,-1 2,0 4,1 6,2l-2 5c-1,-1 -3,-1 -4,-1 -1,0 -2,0 -3,1 -1,1 -2,2 -2,3 -1,2 -1,4 -1,7l0 18 -6 0z"/>
  <path id="21" class="fil1" d="M1037 479c-2,2 -4,3 -6,4 -2,1 -4,1 -6,1 -4,0 -7,-1 -9,-3 -2,-2 -3,-4 -3,-7 0,-2 0,-3 1,-5 1,-1 2,-3 3,-3 1,-1 3,-1 4,-2 1,0 3,-1 5,-1 5,-1 8,-1 10,-2 0,-1 0,-1 0,-2 0,-2 -1,-4 -2,-5 -2,-1 -4,-2 -7,-2 -3,0 -5,0 -6,1 -1,1 -2,3 -3,5l-6 -1c1,-2 1,-4 3,-6 1,-2 3,-3 5,-3 2,-1 5,-1 8,-1 3,0 5,0 7,1 2,1 3,2 4,3 1,1 1,2 2,4 0,1 0,3 0,5l0 8c0,5 0,9 0,10 0,1 1,3 1,4l-6 0c-1,-1 -1,-3 -1,-4zm0 -13c-2,1 -5,2 -10,2 -2,0 -4,1 -5,1 -1,0 -2,1 -2,2 -1,1 -1,2 -1,3 0,2 1,3 2,4 1,1 3,2 5,2 2,0 4,0 6,-1 2,-1 3,-2 4,-4 1,-1 1,-3 1,-6l0 -2z"/>
  <path id="22" class="fil1" d="M1057 483l-5 0 0 -48 6 0 0 17c2,-3 6,-5 9,-5 2,0 4,0 6,1 2,1 3,2 5,4 1,2 2,3 3,6 1,2 1,5 1,7 0,6 -1,10 -4,14 -3,3 -6,5 -11,5 -4,0 -7,-2 -10,-5l0 4zm0 -18c0,4 1,7 2,9 2,3 4,5 7,5 3,0 5,-1 7,-3 2,-2 3,-6 3,-10 0,-5 -1,-8 -3,-10 -2,-2 -4,-3 -6,-3 -3,0 -5,1 -7,3 -2,2 -3,5 -3,10z"/>
  <path id="23" class="fil1" d="M1089 442l0 -7 6 0 0 7 -6 0zm0 41l0 -35 6 0 0 35 -6 0z"/>
  <polygon id="24" class="fil1" points="1104,483 1104,436 1109,436 1109,483 "/>
  <path id="25" class="fil1" d="M1118 442l0 -7 6 0 0 7 -6 0zm0 41l0 -35 6 0 0 35 -6 0z"/>
  <path id="26" class="fil1" d="M1146 478l1 5c-2,0 -3,1 -4,1 -2,0 -4,0 -5,-1 -1,-1 -2,-2 -2,-3 0,-1 -1,-3 -1,-7l0 -20 -4 0 0 -5 4 0 0 -9 6 -4 0 12 6 0 0 5 -6 0 0 20c0,2 0,3 0,3 0,0 1,1 1,1 0,0 1,0 2,0 1,0 2,0 3,0z"/>
  <path id="27" class="fil1" d="M1152 497l-1 -5c1,0 2,1 3,1 1,0 2,0 3,-1 1,0 1,-1 2,-2 0,-1 1,-2 2,-4 0,0 0,-1 1,-1l-13 -35 6 0 7 20c1,3 2,5 3,8 1,-3 1,-5 2,-8l7 -20 6 0 -13 35c-1,4 -3,6 -3,8 -1,2 -2,3 -4,4 -1,1 -3,1 -5,1 -1,0 -2,0 -4,-1z"/>
 </g>
</svg>
